<svg width="94" height="112" viewBox="0 0 94 112" fill="none" xmlns="http://www.w3.org/2000/svg">
<ellipse cx="48" cy="96" rx="46" ry="16" fill="url(#paint0_radial_9_6)"/>
<path d="M46 103V90L58.5 82L76 77.5C76 77.5 68 84.5 66.5 86C65 87.5 63 89.125 58 93.5C53 97.875 46 103 46 103Z" fill="white"/>
<circle cx="45" cy="45" r="45" fill="white"/>
<path d="M70.0103 34.1469C68.1675 29.6424 65.1997 25.7092 61.4027 22.7394C57.6057 19.7695 53.112 17.8667 48.3696 17.2206C43.6272 16.5745 38.8016 17.2076 34.3737 19.0569C29.9459 20.9061 26.0704 23.9069 23.1335 27.7603C20.1966 31.6136 18.3009 36.1848 17.6352 41.0185C16.9696 45.8521 17.5572 50.7793 19.3397 55.309C21.1221 59.8388 24.0371 63.8129 27.794 66.8352C31.551 69.8576 36.0188 71.8227 40.7521 72.5347C40.1321 70.2555 39.5014 67.7363 38.9456 65.0644C40.5627 66.1346 42.2647 67.0648 44.0339 67.8453C44.0339 67.8453 44.1622 70.2009 44.3333 72.8292C46.2449 72.8628 48.1546 72.691 50.0309 72.3166C49.9825 72.0426 49.9825 71.7619 50.0309 71.4878C50.3409 69.4485 51.1961 65.7733 51.3672 63.4067C52.6 62.2303 53.6459 60.8653 54.4672 59.3607L54.4031 59.8406C53.8151 64.4864 52.5858 69.4485 51.8375 70.8226C51.5953 71.2774 51.2971 71.6989 50.9503 72.0767C54.8198 71.1506 58.4456 69.3771 61.5763 66.879C64.707 64.381 67.2677 61.2182 69.0809 57.6099C70.894 54.0016 71.9163 50.0343 72.0768 45.9828C72.2373 41.9313 71.5322 37.8927 70.0103 34.1469ZM68.4389 38.2802C67.9685 38.7491 66.9957 39.0654 66.8354 37.6476C66.675 36.2299 66.6323 35.2375 66.6323 35.2375C66.6323 35.2375 64.5691 31.4969 63.7995 31.4532C63.0298 31.4096 57.5673 35.2375 56.1242 36.906C54.8734 38.3129 54.6276 38.2147 54.6276 40.6903C54.6276 42.5552 54.8628 49.6002 54.7345 54.9876L46.0222 57.3541C43.2839 58.1559 40.4991 58.7823 37.6842 59.2299L36.6152 52.8719H36.4655L33.7182 38.5092C33.7182 38.5092 29.6454 36.9388 28.1488 36.5134C27.4461 36.1998 26.6701 36.0978 25.9124 36.2196C25.1548 36.3413 24.4471 36.6817 23.8729 37.2005C23.2871 37.7238 22.8187 38.3696 22.4996 39.0942C22.1804 39.8187 22.0181 40.6049 22.0235 41.3992C22.2495 41.906 22.4215 42.4362 22.5366 42.9805C22.5901 43.5039 21.2539 43.4494 20.3987 43.4494C19.5435 43.4494 19.4152 41.879 20.0887 40.036C20.6141 38.6188 21.2653 37.2535 22.0342 35.9573C22.6126 34.7993 23.3585 33.7368 24.247 32.8055C24.247 32.8055 24.3967 32.4347 25.5832 32.5438C26.7698 32.6528 33.3655 33.0127 33.3655 33.0127L33.4189 30.5372C40.5879 29.5273 47.8182 29.039 55.0552 29.0758C55.0552 29.741 55.0552 30.4063 55.0552 31.0715C57.7963 29.7954 60.748 29.0555 63.7567 28.8904C63.9177 28.8863 64.0772 28.9229 64.2208 28.9972C64.3645 29.0714 64.4879 29.1809 64.5798 29.3157C64.9433 29.7847 67.1561 32.5874 67.4126 32.9909C68.1312 34.0386 68.7846 35.1313 69.3689 36.2626C69.1686 36.9789 68.8544 37.6568 68.4389 38.2692V38.2802Z" fill="#FDC305"/>
<path d="M66.3549 31.6059C66.8573 32.2602 67.2956 32.8382 67.4239 33.0127C68.1425 34.0604 68.7958 35.1531 69.3801 36.2844C69.1767 36.9772 68.8664 37.6325 68.4608 38.2256C67.9905 38.6946 67.0177 39.0108 66.8573 37.5931C66.697 36.1754 66.6328 35.2375 66.6328 35.2375C66.6328 35.2375 64.5697 31.4968 63.8 31.4532C63.0304 31.4096 57.5678 35.2375 56.1247 36.906C54.874 38.3129 54.6281 38.2147 54.6281 40.6903C54.6281 42.3261 54.8099 47.9425 54.7671 52.9373C56.702 53.1554 59.5455 53.7007 60.4007 54.9876C60.4007 54.9876 60.0907 47.1573 68.7494 51.2578C68.7494 51.2578 69.0488 40.5812 81 43.3185C76.9373 38.4523 71.9568 34.4691 66.3549 31.6059Z" fill="#F06351"/>
<path d="M55.0985 29.0758C55.142 23.0327 54.641 16.9983 53.6019 11.0488C53.6019 11.0488 53.4416 9.63105 52.6719 10.787C52.0368 12.169 51.6046 13.6389 51.3891 15.1493C46.8194 14.8502 42.2325 14.9743 37.6847 15.5201C36.8082 12.521 35.3116 11.1578 34.5954 11.5177C33.8791 11.8776 33.7936 15.0948 33.7936 15.0948L33.4409 30.5371C40.6169 29.5263 47.8544 29.0379 55.0985 29.0758Z" fill="#F06351"/>
<path d="M54.4776 59.3607C54.6166 58.1938 54.6914 56.6452 54.7342 54.9331L46.0224 57.2996C43.2853 58.1197 40.5007 58.7644 37.6847 59.2299L38.8712 64.6827C38.8712 64.8026 38.8712 64.9226 38.9461 65.0426C40.5631 66.1127 42.2651 67.043 44.0342 67.8235C46.6196 66.5626 49.082 65.0545 51.3884 63.3195V63.3849C52.6157 62.2143 53.6577 60.8568 54.4776 59.3607Z" fill="#E55645"/>
<path d="M40.2075 25.6623C40.1541 25.5533 41.2765 26.4039 41.7147 26.6656C42.153 26.9274 42.3668 27.1237 42.3668 27.3091C42.3668 27.4945 42.0889 27.6799 41.704 27.6799C41.3192 27.6799 40.7206 27.549 40.6351 27.3963C40.5496 27.2436 41.2765 27.3963 41.6399 27.3963H41.9499C41.2918 26.9051 40.7052 26.3213 40.2075 25.6623Z" fill="black"/>
<path d="M48.2248 25.7823C48.2248 25.7823 47.1559 27.1782 47.0597 27.2436C46.9635 27.3091 46.878 27.6144 47.2628 27.5599C47.7046 27.4926 48.1406 27.3905 48.5669 27.2546C48.6845 27.1891 48.6417 27.0364 48.4386 27.0583C48.2355 27.0801 47.7117 27.1128 47.3697 27.1782L48.2783 25.7932C48.2783 25.7932 48.3103 25.6623 48.2248 25.7823Z" fill="black"/>
<path d="M44.8682 32.4456C45.3637 32.2229 45.7733 31.8396 46.0333 31.3551C46.3326 30.6353 46.0333 30.3627 45.563 30.2645C44.916 30.1441 44.2482 30.2764 43.6924 30.6353C43.2755 31.0388 43.3289 31.4314 43.6924 31.7259C44.0534 32.0148 44.4484 32.2565 44.8682 32.4456Z" fill="black"/>
<path d="M44.4833 33.8197C44.3606 34.0671 44.1938 34.289 43.9916 34.4741C43.6871 34.724 43.3129 34.869 42.9226 34.8885C42.3341 34.9474 41.7456 34.7759 41.2765 34.4086C41.061 34.2801 40.8693 34.114 40.71 33.9179C40.603 33.7991 40.4716 33.706 40.3251 33.6453C40.3251 33.6453 41.1268 38.1275 43.0723 38.8472C45.0177 39.567 45.3812 38.0184 45.4346 37.604C45.4997 36.3628 45.1941 35.1307 44.5581 34.0706C44.5581 33.7434 44.5367 33.9615 44.4833 33.8197Z" fill="#F06351"/>
<path d="M42.666 35.063C42.1658 34.9896 41.6853 34.8136 41.2536 34.5456C40.8218 34.2775 40.4478 33.923 40.154 33.5035C40.1278 33.4735 40.1132 33.4347 40.1132 33.3944C40.1132 33.3542 40.1278 33.3154 40.154 33.2854C40.168 33.2709 40.1846 33.2593 40.203 33.2515C40.2213 33.2436 40.241 33.2395 40.2609 33.2395C40.2809 33.2395 40.3006 33.2436 40.3189 33.2515C40.3373 33.2593 40.3539 33.2709 40.3678 33.2854C40.6324 33.664 40.9679 33.9852 41.3551 34.2305C41.7423 34.4757 42.1734 34.6401 42.6233 34.714C42.9792 34.6867 43.3237 34.5736 43.6285 34.384C43.9333 34.1945 44.1896 33.9338 44.3763 33.6234L44.526 33.4162L44.6329 33.6562C44.6329 33.6562 45.0391 34.485 45.7018 34.5286C46.3645 34.5722 46.8349 34.0706 47.4442 33.1218C47.4668 33.0871 47.5021 33.063 47.5422 33.0548C47.5823 33.0466 47.6239 33.055 47.658 33.0782C47.692 33.1013 47.7156 33.1373 47.7236 33.1782C47.7316 33.2191 47.7234 33.2616 47.7007 33.2963C46.9881 34.365 46.3147 34.8776 45.6804 34.834C45.4353 34.8008 45.2005 34.7121 44.9934 34.5744C44.7862 34.4366 44.6119 34.2533 44.4832 34.0379C44.2741 34.3358 44.0025 34.5824 43.6881 34.7598C43.3737 34.9371 43.0246 35.0407 42.666 35.063Z" fill="black"/>
<path d="M44.7612 49.742C46.9751 49.742 48.7697 47.911 48.7697 45.6524C48.7697 43.3937 46.9751 41.5627 44.7612 41.5627C42.5474 41.5627 40.7527 43.3937 40.7527 45.6524C40.7527 47.911 42.5474 49.742 44.7612 49.742Z" fill="#FDC305"/>
<path d="M50.0737 42.3261L46.728 43.7548L47.9573 37.6149L39.9403 48.2588L43.286 46.8302L42.0568 52.9809L50.0737 42.3261ZM42.1743 46.503L46.6211 40.603L45.7553 44.9653L47.8931 44.071L43.4143 49.9819L44.2801 45.6196L42.1743 46.503Z" fill="#111111"/>
<path d="M40.6778 44.8999C41.339 44.8999 41.875 44.353 41.875 43.6784C41.875 43.0039 41.339 42.457 40.6778 42.457C40.0166 42.457 39.4806 43.0039 39.4806 43.6784C39.4806 44.353 40.0166 44.8999 40.6778 44.8999Z" fill="#111111"/>
<path d="M47.6476 49.3276C48.114 49.3276 48.4921 48.9418 48.4921 48.466C48.4921 47.9902 48.114 47.6045 47.6476 47.6045C47.1812 47.6045 46.8032 47.9902 46.8032 48.466C46.8032 48.9418 47.1812 49.3276 47.6476 49.3276Z" fill="#111111"/>
<path d="M48.6739 46.961C48.8805 46.961 49.048 46.7901 49.048 46.5793C49.048 46.3685 48.8805 46.1976 48.6739 46.1976C48.4672 46.1976 48.2997 46.3685 48.2997 46.5793C48.2997 46.7901 48.4672 46.961 48.6739 46.961Z" fill="#111111"/>
<path d="M55.045 31.0497C53.1154 32.8244 51.298 34.7221 49.6039 36.7315C47.9164 38.7265 46.0121 40.5193 43.9276 42.0753C43.6924 41.4973 42.1852 40.4177 42.1852 40.4177C42.1852 40.4177 38.8285 38.0729 36.6264 36.2299C35.436 35.2184 34.3145 34.1253 33.2698 32.9582L31.1319 32.8382C34.2181 37.4373 38.7393 40.8352 43.9597 42.4788C44.879 42.3261 47.4659 40.4395 49.4008 38.9018C51.6899 36.9157 53.8336 34.7616 55.8147 32.4565C56.3472 31.8109 56.7601 31.0718 57.0334 30.2754C55.8147 30.6898 55.045 31.0497 55.045 31.0497Z" fill="#F06351"/>
<path d="M33.7188 38.5092C33.7188 38.5092 29.6459 36.9388 28.1494 36.5134C27.4467 36.1998 26.6707 36.0978 25.913 36.2196C25.1553 36.3413 24.4476 36.6817 23.8734 37.2005C23.2876 37.7238 22.8192 38.3696 22.5001 39.0942C22.181 39.8187 22.0186 40.6049 22.0241 41.3992C22.2501 41.906 22.4221 42.4362 22.5372 42.9805C22.5906 43.5039 21.2544 43.4494 20.3992 43.4494C19.544 43.4494 19.4158 41.879 20.0892 40.036C20.6146 38.6188 21.2659 37.2535 22.0348 35.9573C16.2088 39.0545 6 46.2085 6 46.2085C8.92013 46.0289 11.8502 46.1165 14.755 46.4703C20.3672 47.0483 20.0999 51.5632 20.0999 51.5632C22.0738 51.008 24.0855 50.6034 26.1183 50.3527C28.3845 50.2 28.5449 52.6647 28.5449 52.6647L29.1115 56.8743C29.9717 55.9247 30.9205 55.0627 31.9443 54.3005C33.2639 53.2228 34.9442 52.7141 36.6264 52.8828L33.7188 38.5092Z" fill="#F06351"/>
<defs>
<radialGradient id="paint0_radial_9_6" cx="0" cy="0" r="1" gradientUnits="userSpaceOnUse" gradientTransform="translate(48 96) scale(46 16)">
<stop stop-color="#232323" stop-opacity="0.7"/>
<stop offset="0.481" stop-color="#4A4A4A" stop-opacity="0.5"/>
<stop offset="1" stop-color="#737373" stop-opacity="0.01"/>
</radialGradient>
</defs>
</svg>
