<svg width="66" height="82" viewBox="0 0 66 82" fill="none" xmlns="http://www.w3.org/2000/svg">
<ellipse cx="34.5" cy="76" rx="30.5" ry="4" fill="url(#paint0_radial_2_6)"/>
<path d="M33 74V60.875L65 39C65 39 63.2178 46.2857 60.7015 50.8125C57.3161 56.9026 55.4478 59.5625 49.2388 64.8125C43.0299 70.0625 33 74 33 74Z" fill="white"/>
<circle cx="33" cy="33" r="33" fill="white"/>
<path d="M53.2082 25.0509C51.734 21.4472 49.3597 18.3007 46.3221 15.9248C43.2845 13.549 39.6896 12.0267 35.8957 11.5098C32.1017 10.9929 28.2413 11.4994 24.699 12.9788C21.1567 14.4582 18.0563 16.8589 15.7068 19.9415C13.3573 23.0242 11.8407 26.6812 11.3082 30.5481C10.7756 34.415 11.2458 38.3568 12.6717 41.9806C14.0977 45.6044 16.4296 48.7836 19.4352 51.2015C22.4408 53.6194 26.015 55.1915 29.8017 55.7611C29.3057 53.9377 28.8011 51.9223 28.3564 49.7848C29.6501 50.641 31.0118 51.3852 32.4271 52.0096C32.4271 52.0096 32.5298 53.8941 32.6666 55.9967C34.1959 56.0236 35.7237 55.8862 37.2247 55.5866C37.186 55.3674 37.186 55.1428 37.2247 54.9236C37.4727 53.2921 38.1569 50.3519 38.2937 48.4587C39.28 47.5176 40.1167 46.4256 40.7738 45.2219L40.7225 45.6058C40.2521 49.3224 39.2686 53.2921 38.67 54.3914C38.4762 54.7553 38.2377 55.0924 37.9602 55.3947C41.0558 54.6538 43.9564 53.235 46.461 51.2366C48.9656 49.2381 51.0141 46.7079 52.4647 43.8213C53.9152 40.9347 54.733 37.7607 54.8614 34.5196C54.9898 31.2784 54.4257 28.0475 53.2082 25.0509ZM51.9511 28.3575C51.5748 28.7326 50.7966 28.9856 50.6683 27.8514C50.54 26.7172 50.5058 25.9233 50.5058 25.9233C50.5058 25.9233 48.8553 22.9308 48.2396 22.8959C47.6238 22.861 43.2538 25.9233 42.0993 27.2582C41.0987 28.3836 40.9021 28.3051 40.9021 30.2856C40.9021 31.7775 41.0902 37.4135 40.9876 41.7234L34.0178 43.6166C31.8271 44.258 29.5993 44.7592 27.3473 45.1172L26.4921 40.0308H26.3724L24.1746 28.5407C24.1746 28.5407 20.9163 27.2843 19.719 26.9441C19.1569 26.6932 18.5361 26.6116 17.9299 26.709C17.3238 26.8064 16.7576 27.0787 16.2983 27.4937C15.8297 27.9123 15.4549 28.429 15.1996 29.0087C14.9443 29.5883 14.8144 30.2172 14.8188 30.8527C14.9996 31.2582 15.1372 31.6823 15.2293 32.1177C15.2721 32.5365 14.2031 32.4929 13.5189 32.4929C12.8348 32.4929 12.7322 31.2365 13.2709 29.7621C13.6912 28.6284 14.2122 27.5362 14.8274 26.4991C15.29 25.5728 15.8868 24.7228 16.5976 23.9778C16.5976 23.9778 16.7173 23.6811 17.6666 23.7684C18.6158 23.8556 23.8924 24.1435 23.8924 24.1435L23.9351 22.1631C29.6703 21.3552 35.4546 20.9645 41.2441 20.994C41.2441 21.5262 41.2441 22.0584 41.2441 22.5906C43.437 21.5696 45.7984 20.9777 48.2054 20.8457C48.3341 20.8423 48.4617 20.8717 48.5767 20.9311C48.6916 20.9905 48.7903 21.078 48.8638 21.1859C49.1546 21.5611 50.9249 23.8033 51.1301 24.1261C51.705 24.9642 52.2277 25.8384 52.6951 26.7434C52.5349 27.3165 52.2835 27.8588 51.9511 28.3487V28.3575Z" fill="#FDC305"/>
<path d="M50.2839 23.0181C50.6859 23.5415 51.0365 24.0039 51.1391 24.1435C51.714 24.9817 52.2367 25.8558 52.7041 26.7609C52.5414 27.3151 52.2931 27.8393 51.9686 28.3138C51.5924 28.689 50.8141 28.942 50.6859 27.8078C50.5576 26.6736 50.5063 25.9233 50.5063 25.9233C50.5063 25.9233 48.8558 22.9308 48.24 22.8959C47.6243 22.861 43.2543 25.9233 42.0998 27.2582C41.0992 28.3836 40.9025 28.3051 40.9025 30.2856C40.9025 31.5942 41.0479 36.0874 41.0137 40.0832C42.5616 40.2577 44.8364 40.6939 45.5205 41.7234C45.5205 41.7234 45.2725 35.4592 52.1995 38.7396C52.1995 38.7396 52.439 30.1983 62 32.3882C58.7498 28.4952 54.7655 25.3086 50.2839 23.0181Z" fill="#F06351"/>
<path d="M41.2788 20.994C41.3136 16.1595 40.9128 11.332 40.0815 6.57236C40.0815 6.57236 39.9533 5.43817 39.3375 6.36297C38.8294 7.46856 38.4836 8.64443 38.3113 9.85277C34.6555 9.61347 30.986 9.71276 27.3478 10.1494C26.6465 7.75017 25.4493 6.6596 24.8763 6.94751C24.3033 7.23542 24.2349 9.80915 24.2349 9.80915L23.9527 22.1631C29.6935 21.3544 35.4835 20.9637 41.2788 20.994Z" fill="#F06351"/>
<path d="M40.7821 45.2219C40.8933 44.2884 40.9531 43.0495 40.9874 41.6798L34.0179 43.573C31.8283 44.2291 29.6005 44.7449 27.3478 45.1172L28.297 49.4795C28.297 49.5755 28.297 49.6714 28.3569 49.7674C29.6505 50.6235 31.0121 51.3677 32.4273 51.9921C34.4957 50.9834 36.4656 49.777 38.3107 48.3889V48.4413C39.2925 47.5048 40.1262 46.4188 40.7821 45.2219Z" fill="#E55645"/>
<path d="M29.366 18.2632C29.3233 18.176 30.2212 18.8565 30.5718 19.0659C30.9224 19.2752 31.0934 19.4323 31.0934 19.5806C31.0934 19.7289 30.8711 19.8772 30.5632 19.8772C30.2554 19.8772 29.7765 19.7725 29.7081 19.6504C29.6397 19.5282 30.2212 19.6504 30.5119 19.6504H30.7599C30.2334 19.2574 29.7641 18.7904 29.366 18.2632Z" fill="black"/>
<path d="M35.7799 18.3592C35.7799 18.3592 34.9247 19.4759 34.8478 19.5283C34.7708 19.5806 34.7024 19.8249 35.0102 19.7813C35.3637 19.7274 35.7125 19.6458 36.0535 19.537C36.1476 19.4846 36.1134 19.3625 35.9509 19.3799C35.7884 19.3974 35.3694 19.4236 35.0957 19.4759L35.8226 18.3679C35.8226 18.3679 35.8483 18.2632 35.7799 18.3592Z" fill="black"/>
<path d="M33.0946 23.6898C33.491 23.5117 33.8186 23.205 34.0267 22.8174C34.2661 22.2416 34.0267 22.0235 33.6504 21.9449C33.1328 21.8486 32.5985 21.9545 32.1539 22.2416C31.8204 22.5644 31.8632 22.8785 32.1539 23.114C32.4428 23.3451 32.7588 23.5386 33.0946 23.6898Z" fill="black"/>
<path d="M32.7866 24.7891C32.6884 24.987 32.5551 25.1645 32.3933 25.3126C32.1497 25.5125 31.8503 25.6286 31.5381 25.6441C31.0673 25.6913 30.5965 25.5541 30.2212 25.2603C30.0488 25.1574 29.8954 25.0245 29.768 24.8676C29.6824 24.7726 29.5773 24.6981 29.4601 24.6495C29.4601 24.6495 30.1015 28.2353 31.6578 28.8111C33.2142 29.3869 33.5049 28.1481 33.5477 27.8165C33.5998 26.8236 33.3553 25.8379 32.8465 24.9898C32.8465 24.7281 32.8294 24.9025 32.7866 24.7891Z" fill="#F06351"/>
<path d="M31.3329 25.7837C30.9327 25.725 30.5483 25.5842 30.2029 25.3698C29.8575 25.1554 29.5583 24.8718 29.3233 24.5361C29.3022 24.5121 29.2906 24.4811 29.2906 24.4489C29.2906 24.4167 29.3022 24.3856 29.3233 24.3616C29.3344 24.35 29.3477 24.3408 29.3624 24.3345C29.3771 24.3282 29.3928 24.325 29.4088 24.325C29.4247 24.325 29.4405 24.3282 29.4552 24.3345C29.4698 24.3408 29.4831 24.35 29.4943 24.3616C29.7059 24.6645 29.9744 24.9215 30.2841 25.1177C30.5939 25.3139 30.9387 25.4454 31.2986 25.5045C31.5834 25.4827 31.859 25.3922 32.1028 25.2406C32.3466 25.0889 32.5517 24.8804 32.7011 24.6321L32.8208 24.4663L32.9063 24.6583C32.9063 24.6583 33.2313 25.3213 33.7615 25.3562C34.2917 25.3911 34.6679 24.9898 35.1554 24.2308C35.1735 24.203 35.2017 24.1837 35.2338 24.1772C35.2659 24.1706 35.2992 24.1774 35.3264 24.1959C35.3536 24.2144 35.3725 24.2432 35.3789 24.2759C35.3853 24.3086 35.3787 24.3426 35.3606 24.3704C34.7905 25.2254 34.2517 25.6354 33.7444 25.6005C33.5483 25.574 33.3604 25.503 33.1947 25.3928C33.029 25.2826 32.8895 25.136 32.7866 24.9636C32.6193 25.202 32.402 25.3993 32.1505 25.5412C31.899 25.683 31.6197 25.7659 31.3329 25.7837Z" fill="black"/>
<path d="M33.009 37.5269C34.78 37.5269 36.2158 36.0621 36.2158 34.2552C36.2158 32.4483 34.78 30.9835 33.009 30.9835C31.2379 30.9835 29.8022 32.4483 29.8022 34.2552C29.8022 36.0621 31.2379 37.5269 33.009 37.5269Z" fill="#FDC305"/>
<path d="M37.259 31.5942L34.5824 32.7372L35.5658 27.8253L29.1522 36.3404L31.8288 35.1975L30.8454 40.1181L37.259 31.5942ZM30.9395 34.9357L34.4969 30.2158L33.8042 33.7056L35.5145 32.9902L31.9315 37.7188L32.6241 34.229L30.9395 34.9357Z" fill="#111111"/>
<path d="M29.7423 33.6532C30.2712 33.6532 30.7 33.2157 30.7 32.6761C30.7 32.1364 30.2712 31.6989 29.7423 31.6989C29.2133 31.6989 28.7845 32.1364 28.7845 32.6761C28.7845 33.2157 29.2133 33.6532 29.7423 33.6532Z" fill="#111111"/>
<path d="M35.3181 37.1954C35.6912 37.1954 35.9937 36.8868 35.9937 36.5061C35.9937 36.1255 35.6912 35.8169 35.3181 35.8169C34.945 35.8169 34.6425 36.1255 34.6425 36.5061C34.6425 36.8868 34.945 37.1954 35.3181 37.1954Z" fill="#111111"/>
<path d="M36.1391 35.3022C36.3044 35.3022 36.4384 35.1654 36.4384 34.9968C36.4384 34.8282 36.3044 34.6914 36.1391 34.6914C35.9738 34.6914 35.8398 34.8282 35.8398 34.9968C35.8398 35.1654 35.9738 35.3022 36.1391 35.3022Z" fill="#111111"/>
<path d="M41.236 22.5731C39.6923 23.9928 38.2384 25.511 36.8831 27.1186C35.5331 28.7145 34.0097 30.1487 32.3421 31.3936C32.1539 30.9312 30.9481 30.0675 30.9481 30.0675C30.9481 30.0675 28.2628 28.1917 26.5011 26.7172C25.5488 25.908 24.6516 25.0336 23.8159 24.0999L22.1055 24.0039C24.5744 27.6832 28.1915 30.4015 32.3677 31.7164C33.1032 31.5942 35.1728 30.0849 36.7206 28.8548C38.5519 27.2659 40.2669 25.5426 41.8518 23.6986C42.2778 23.1821 42.6081 22.5908 42.8267 21.9537C41.8518 22.2852 41.236 22.5731 41.236 22.5731Z" fill="#F06351"/>
<path d="M24.175 28.5407C24.175 28.5407 20.9168 27.2843 19.7195 26.9441C19.1573 26.6932 18.5365 26.6116 17.9304 26.709C17.3243 26.8064 16.7581 27.0787 16.2987 27.4937C15.8301 27.9123 15.4554 28.429 15.2001 29.0087C14.9448 29.5883 14.8149 30.2172 14.8193 30.8527C15 31.2582 15.1377 31.6823 15.2298 32.1177C15.2725 32.5365 14.2035 32.4929 13.5194 32.4929C12.8352 32.4929 12.7326 31.2365 13.2714 29.7621C13.6917 28.6284 14.2127 27.5362 14.8278 26.4991C10.167 28.9769 2 34.7002 2 34.7002C4.33611 34.5564 6.68014 34.6265 9.00399 34.9096C13.4937 35.372 13.2799 38.9839 13.2799 38.9839C14.8591 38.5398 16.4684 38.2161 18.0946 38.0155C19.9076 37.8933 20.0359 39.8651 20.0359 39.8651L20.4892 43.2327C21.1774 42.4731 21.9364 41.7835 22.7554 41.1738C23.8111 40.3116 25.1553 39.9046 26.5011 40.0396L24.175 28.5407Z" fill="#F06351"/>
<defs>
<radialGradient id="paint0_radial_2_6" cx="0" cy="0" r="1" gradientUnits="userSpaceOnUse" gradientTransform="translate(34.5 76) scale(30.5 4)">
<stop stop-color="#232323" stop-opacity="0.2"/>
<stop offset="1" stop-color="#737373" stop-opacity="0.01"/>
</radialGradient>
</defs>
</svg>
