<svg width="94" height="112" fill="none" xmlns="http://www.w3.org/2000/svg"><ellipse cx="48" cy="96" rx="46" ry="16" fill="url(#a)"/><path d="M46 103V90l12.5-8L76 77.5s-8 7-9.5 8.5-3.5 3.125-8.5 7.5-12 9.5-12 9.5Z" fill="#fff"/><circle cx="45" cy="45" r="45" fill="#fff"/><path d="M70.01 34.147a27.867 27.867 0 0 0-8.607-11.408 27.089 27.089 0 0 0-13.033-5.518 26.88 26.88 0 0 0-13.996 1.836 27.441 27.441 0 0 0-11.24 8.703 28.226 28.226 0 0 0-5.499 13.259 28.45 28.45 0 0 0 1.705 14.29 27.888 27.888 0 0 0 8.454 11.526 27.105 27.105 0 0 0 12.958 5.7c-.62-2.28-1.25-4.799-1.806-7.47 1.617 1.07 3.319 2 5.088 2.78 0 0 .128 2.356.3 4.984a26.714 26.714 0 0 0 5.697-.512 2.384 2.384 0 0 1 0-.83c.31-2.038 1.165-5.714 1.336-8.08a16.555 16.555 0 0 0 3.1-4.046l-.064.48c-.588 4.645-1.817 9.607-2.566 10.982-.242.454-.54.876-.887 1.254 3.87-.926 7.496-2.7 10.626-5.198a27.846 27.846 0 0 0 7.505-9.27 28.408 28.408 0 0 0 2.996-11.626c.16-4.052-.545-8.09-2.067-11.836ZM68.44 38.28c-.47.47-1.443.785-1.604-.632-.16-1.418-.203-2.41-.203-2.41s-2.063-3.741-2.833-3.785c-.77-.043-6.232 3.784-7.675 5.453-1.25 1.407-1.496 1.309-1.496 3.784 0 1.865.235 8.91.106 14.298l-8.712 2.366a67.255 67.255 0 0 1-8.338 1.876l-1.069-6.358h-.15l-2.747-14.363s-4.073-1.57-5.57-1.996a3.947 3.947 0 0 0-2.236-.293 3.986 3.986 0 0 0-2.04.98 5.522 5.522 0 0 0-1.372 1.894 5.624 5.624 0 0 0-.477 2.305c.227.507.399 1.037.514 1.581.053.524-1.283.47-2.138.47s-.984-1.571-.31-3.414a25.088 25.088 0 0 1 1.945-4.079 12.944 12.944 0 0 1 2.213-3.151s.15-.371 1.336-.262c1.187.109 7.782.469 7.782.469l.054-2.476c7.169-1.01 14.4-1.498 21.636-1.461v1.995a23.688 23.688 0 0 1 8.702-2.18.956.956 0 0 1 .464.106.978.978 0 0 1 .359.319c.363.469 2.576 3.271 2.833 3.675a30.653 30.653 0 0 1 1.956 3.272 6.868 6.868 0 0 1-.93 2.006v.011Z" fill="#FDC305"/><path d="M66.355 31.606c.502.654.94 1.232 1.069 1.407a30.652 30.652 0 0 1 1.956 3.271 6.864 6.864 0 0 1-.92 1.942c-.47.469-1.442.785-1.603-.633-.16-1.418-.224-2.356-.224-2.356s-2.063-3.74-2.833-3.784c-.77-.043-6.232 3.784-7.675 5.453-1.251 1.407-1.497 1.309-1.497 3.784 0 1.636.182 7.253.14 12.247 1.934.218 4.777.764 5.633 2.05 0 0-.31-7.83 8.348-3.73 0 0 .3-10.676 12.251-7.938a46.886 46.886 0 0 0-14.645-11.713ZM55.099 29.076a100.579 100.579 0 0 0-1.497-18.027s-.16-1.418-.93-.262a15.789 15.789 0 0 0-1.283 4.362c-4.57-.299-9.157-.175-13.704.371-.877-2.999-2.373-4.362-3.09-4.002-.716.36-.801 3.577-.801 3.577l-.353 15.442c7.176-1.01 14.413-1.5 21.657-1.461Z" fill="#F06351"/><path d="M54.478 59.36c.139-1.166.213-2.715.256-4.427L46.022 57.3a67.278 67.278 0 0 1-8.337 1.93l1.186 5.453c0 .12 0 .24.075.36 1.617 1.07 3.32 2 5.088 2.78a45.175 45.175 0 0 0 7.354-4.503v.065a16.553 16.553 0 0 0 3.09-4.024Z" fill="#E55645"/><path d="M40.208 25.662c-.054-.109 1.069.742 1.507 1.004.438.261.652.458.652.643s-.278.37-.663.37-.983-.13-1.069-.283c-.085-.152.642 0 1.005 0h.31a8.722 8.722 0 0 1-1.742-1.734ZM48.225 25.782s-1.07 1.396-1.165 1.462c-.096.065-.182.37.203.316.442-.067.878-.17 1.304-.305.117-.066.075-.219-.128-.197-.203.022-.727.055-1.07.12l.91-1.385s.031-.13-.054-.01ZM44.868 32.446a2.477 2.477 0 0 0 1.165-1.09c.3-.72 0-.993-.47-1.091a2.576 2.576 0 0 0-1.87.37c-.417.404-.364.796 0 1.09.36.29.755.532 1.175.72Z" fill="#000"/><path d="M44.483 33.82a2.23 2.23 0 0 1-.491.654c-.305.25-.68.395-1.07.415a2.297 2.297 0 0 1-1.645-.48 2.147 2.147 0 0 1-.567-.491 1.069 1.069 0 0 0-.385-.273s.802 4.482 2.747 5.202c1.946.72 2.31-.829 2.363-1.243a6.237 6.237 0 0 0-.877-3.533c0-.328-.021-.11-.075-.251Z" fill="#F06351"/><path d="M42.666 35.063c-.5-.073-.98-.25-1.412-.517a3.774 3.774 0 0 1-1.1-1.042.166.166 0 0 1 0-.219.15.15 0 0 1 .165-.033c.018.007.035.019.049.033.264.379.6.7.987.946a3.4 3.4 0 0 0 1.268.483c.356-.027.7-.14 1.006-.33.304-.19.56-.45.747-.76l.15-.208.107.24s.406.829 1.069.873c.663.043 1.133-.458 1.742-1.407a.152.152 0 0 1 .214-.044.16.16 0 0 1 .043.218c-.713 1.069-1.386 1.582-2.02 1.538a1.638 1.638 0 0 1-.688-.26 1.676 1.676 0 0 1-.51-.536c-.209.298-.48.544-.795.722-.314.177-.663.28-1.022.303Z" fill="#000"/><path d="M44.761 49.742c2.214 0 4.009-1.831 4.009-4.09 0-2.258-1.795-4.09-4.009-4.09-2.214 0-4.008 1.832-4.008 4.09 0 2.259 1.794 4.09 4.008 4.09Z" fill="#FDC305"/><path d="m50.074 42.326-3.346 1.429 1.23-6.14-8.018 10.644 3.346-1.429-1.23 6.15 8.018-10.654Zm-7.9 4.177 4.447-5.9-.866 4.362 2.138-.894-4.479 5.91.866-4.361-2.106.883ZM40.678 44.9a1.21 1.21 0 0 0 1.197-1.222 1.21 1.21 0 0 0-1.197-1.221 1.21 1.21 0 0 0-1.197 1.221 1.21 1.21 0 0 0 1.197 1.222ZM47.648 49.328a.853.853 0 0 0 .844-.862.853.853 0 0 0-.844-.861.853.853 0 0 0-.845.861c0 .476.378.862.845.862ZM48.674 46.961c.206 0 .374-.17.374-.382a.378.378 0 0 0-.374-.381.378.378 0 0 0-.374.381c0 .211.167.382.374.382Z" fill="#111"/><path d="M55.045 31.05a62.122 62.122 0 0 0-5.441 5.681 34.345 34.345 0 0 1-5.676 5.344c-.236-.578-1.743-1.657-1.743-1.657s-3.357-2.345-5.559-4.188a34.403 34.403 0 0 1-3.356-3.272l-2.138-.12c3.086 4.6 7.607 7.997 12.828 9.64.919-.152 3.506-2.038 5.44-3.576a62.248 62.248 0 0 0 6.415-6.446 6.996 6.996 0 0 0 1.218-2.18 21.554 21.554 0 0 0-1.988.774ZM33.719 38.51s-4.073-1.571-5.57-1.997a3.947 3.947 0 0 0-2.236-.293 3.985 3.985 0 0 0-2.04.98 5.522 5.522 0 0 0-1.373 1.894 5.624 5.624 0 0 0-.476 2.305c.226.507.398 1.037.513 1.581.054.524-1.283.47-2.138.47s-.983-1.571-.31-3.414a25.089 25.089 0 0 1 1.946-4.079C16.209 39.054 6 46.21 6 46.21c2.92-.18 5.85-.093 8.755.261 5.612.578 5.345 5.093 5.345 5.093a40.563 40.563 0 0 1 6.018-1.21c2.267-.153 2.427 2.312 2.427 2.312l.566 4.21a19.68 19.68 0 0 1 2.833-2.575 6.39 6.39 0 0 1 4.682-1.417L33.72 38.509Z" fill="#F06351"/><defs><radialGradient id="a" cx="0" cy="0" r="1" gradientUnits="userSpaceOnUse" gradientTransform="matrix(46 0 0 16 48 96)"><stop stop-color="#232323" stop-opacity=".7"/><stop offset=".481" stop-color="#4A4A4A" stop-opacity=".5"/><stop offset="1" stop-color="#737373" stop-opacity=".01"/></radialGradient></defs></svg>